<svg width="15" height="12" viewBox="0 0 15 12" fill="none" xmlns="http://www.w3.org/2000/svg">
<path d="M0.589258 4.46129L0.294633 4.75596L0 4.46129L0.294633 4.16667L0.589258 4.46129ZM14.3393 11.128C14.3393 11.358 14.1527 11.5446 13.9226 11.5446C13.6925 11.5446 13.5059 11.358 13.5059 11.128H14.3393ZM4.4613 8.92262L0.294633 4.75596L0.883883 4.16667L5.05055 8.33329L4.4613 8.92262ZM0.294633 4.16667L4.4613 0L5.05055 0.58925L0.883883 4.75596L0.294633 4.16667ZM0.589258 4.04462H8.92259V4.87796H0.589258V4.04462ZM14.3393 9.46129V11.128H13.5059V9.46129H14.3393ZM8.92259 4.04462C11.9141 4.04462 14.3393 6.46971 14.3393 9.46129H13.5059C13.5059 6.92996 11.4539 4.87796 8.92259 4.87796V4.04462Z" fill="#B14DFF"/>
</svg>
