<svg width="20" height="20" viewBox="0 0 20 20" fill="none" xmlns="http://www.w3.org/2000/svg">
<path d="M12.5 10H10M10 10H7.5M10 10V7.5M10 10V12.5" stroke="white" stroke-linecap="round"/>
<path d="M18.3337 10.0003C18.3337 13.9287 18.3337 15.8929 17.1132 17.1132C15.8929 18.3337 13.9287 18.3337 10.0003 18.3337C6.07195 18.3337 4.10777 18.3337 2.88738 17.1132C1.66699 15.8929 1.66699 13.9287 1.66699 10.0003C1.66699 6.07195 1.66699 4.10777 2.88738 2.88738C4.10777 1.66699 6.07195 1.66699 10.0003 1.66699C13.9287 1.66699 15.8929 1.66699 17.1132 2.88738C17.9247 3.69883 18.1967 4.83912 18.2877 6.66699" stroke="white" stroke-linecap="round"/>
</svg>
