<svg width="20" height="20" viewBox="0 0 20 20" fill="none" xmlns="http://www.w3.org/2000/svg">
<g clip-path="url(#clip0_1212_172)">
<path d="M17.6938 4.64346C17.5956 4.5169 17.4527 4.43282 17.2944 4.40858C17.1361 4.38434 16.9745 4.42178 16.8431 4.51318C16.7116 4.60459 16.6202 4.74297 16.5877 4.89979C16.5553 5.05661 16.5843 5.2199 16.6688 5.35596C17.3972 6.40257 17.8691 7.60593 18.0462 8.86872C18.2234 10.1315 18.1008 11.4183 17.6884 12.6249C17.2761 13.8315 16.5855 14.9242 15.6726 15.8144C14.7596 16.7047 13.65 17.3676 12.4334 17.7495C11.2167 18.1314 9.92732 18.2216 8.66938 18.0127C7.41144 17.8039 6.22032 17.3019 5.19235 16.5474C4.16439 15.7929 3.32845 14.807 2.75214 13.6695C2.17584 12.532 1.87536 11.2749 1.875 9.99971C1.88288 8.25141 2.45103 6.55169 3.49606 5.15007C4.54109 3.74845 6.00793 2.71878 7.68125 2.21221C7.76005 2.18882 7.83346 2.15014 7.8973 2.09837C7.96115 2.04661 8.01417 1.98278 8.05335 1.91052C8.09252 1.83827 8.11708 1.759 8.12562 1.67725C8.13416 1.59551 8.12652 1.51288 8.10313 1.43409C8.07974 1.35529 8.04105 1.28188 7.98929 1.21803C7.93753 1.15419 7.87369 1.10117 7.80144 1.06199C7.72918 1.02282 7.64992 0.998259 7.56817 0.989717C7.48643 0.981175 7.4038 0.988819 7.325 1.01221C5.65855 1.50833 4.16289 2.45812 3.0052 3.75541C1.84751 5.05271 1.07341 6.64639 0.769407 8.35835C0.465406 10.0703 0.643487 11.8331 1.28375 13.4496C1.92401 15.0662 3.00122 16.4729 4.39498 17.5124C5.78874 18.552 7.44414 19.1834 9.17616 19.3362C10.9082 19.489 12.6486 19.1571 14.2028 18.3776C15.757 17.5982 17.0639 16.4018 17.9773 14.9223C18.8906 13.4428 19.3746 11.7385 19.375 9.99971C19.3785 8.08392 18.7914 6.21361 17.6938 4.64346Z" fill="#D63131"/>
<path d="M12.3189 2.21293C13.2932 2.50858 14.2029 2.9857 15.0001 3.61918C15.0645 3.67007 15.1384 3.70777 15.2174 3.73012C15.2964 3.75248 15.379 3.75906 15.4605 3.74948C15.5421 3.73991 15.6209 3.71436 15.6926 3.67431C15.7643 3.63426 15.8273 3.58048 15.8782 3.51605C15.9291 3.45162 15.9668 3.3778 15.9892 3.2988C16.0115 3.2198 16.0181 3.13718 16.0085 3.05563C15.999 2.97409 15.9734 2.89524 15.9334 2.82357C15.8933 2.7519 15.8395 2.68882 15.7751 2.63793C14.8463 1.90241 13.7857 1.35088 12.6501 1.01293C12.491 0.965687 12.3196 0.983595 12.1737 1.06271C12.0277 1.14183 11.9192 1.27567 11.872 1.4348C11.8247 1.59393 11.8426 1.76531 11.9218 1.91124C12.0009 2.05717 12.1347 2.16569 12.2939 2.21293H12.3189ZM9.55636 1.69418C9.61711 1.74939 9.68687 1.79378 9.76261 1.82543C9.83742 1.85849 9.91831 1.87557 10.0001 1.87557C10.0819 1.87557 10.1628 1.85849 10.2376 1.82543C10.3133 1.79367 10.383 1.74929 10.4439 1.69418C10.5018 1.63578 10.5476 1.56652 10.5787 1.49037C10.6098 1.41422 10.6256 1.33268 10.6251 1.25043C10.6228 1.08495 10.5581 0.92645 10.4439 0.806679C10.3717 0.731427 10.2819 0.675422 10.1825 0.643765C10.0832 0.612108 9.9775 0.605805 9.87511 0.625429C9.83597 0.632359 9.79807 0.644994 9.76261 0.662929C9.72272 0.676469 9.68487 0.695394 9.65011 0.719179L9.55636 0.794179C9.49946 0.853619 9.45485 0.923709 9.42511 1.00043C9.39144 1.07944 9.37442 1.16455 9.37511 1.25043C9.37609 1.3321 9.39308 1.41279 9.42511 1.48793C9.45687 1.56361 9.50125 1.63335 9.55636 1.69418ZM14.1939 5.80668C14.0768 5.69027 13.9183 5.62493 13.7532 5.62493C13.5881 5.62493 13.4297 5.69027 13.3126 5.80668L10.0001 9.11918L6.69386 5.80668C6.57429 5.70429 6.42049 5.65078 6.2632 5.65686C6.1059 5.66294 5.95669 5.72814 5.84538 5.83945C5.73407 5.95076 5.66886 6.09997 5.66279 6.25727C5.65671 6.41457 5.71021 6.56837 5.81261 6.68793L9.11886 10.0004L5.80636 13.3067C5.74093 13.3627 5.68779 13.4317 5.65028 13.5092C5.61276 13.5867 5.59168 13.6712 5.58836 13.7573C5.58503 13.8433 5.59954 13.9292 5.63096 14.0094C5.66238 14.0896 5.71004 14.1624 5.77095 14.2233C5.83186 14.2842 5.9047 14.3319 5.9849 14.3633C6.06511 14.3947 6.15094 14.4093 6.23701 14.4059C6.32309 14.4026 6.40755 14.3815 6.48509 14.344C6.56263 14.3065 6.63158 14.2534 6.68761 14.1879L10.0001 10.8817L13.3064 14.1879C13.4259 14.2903 13.5797 14.3438 13.737 14.3377C13.8943 14.3317 14.0435 14.2665 14.1548 14.1552C14.2661 14.0438 14.3313 13.8946 14.3374 13.7373C14.3435 13.58 14.29 13.4262 14.1876 13.3067L10.8814 10.0004L14.1876 6.69418C14.2466 6.63649 14.2936 6.56769 14.3259 6.49175C14.3581 6.41582 14.375 6.33424 14.3756 6.25173C14.3762 6.16922 14.3604 6.08742 14.3292 6.01103C14.298 5.93465 14.252 5.86519 14.1939 5.80668Z" fill="#D63131"/>
</g>
<defs>
<clipPath id="clip0_1212_172">
<rect width="20" height="20" fill="white"/>
</clipPath>
</defs>
</svg>
